<svg version="1.1" xmlns="http://www.w3.org/2000/svg">
	<defs>
		<symbol id="facebook" viewBox="0 0 12 23.1">
            <path d="M12,3.8H9.8c-1.7,0-2,.8-2,2V8.5h4.1l-0.5,4.1H7.8V23.1H3.5V12.6H0V8.5H3.5v-3C3.5,1.9,5.7,0,8.8,0L12,0.2V3.8Z" />
        </symbol>

		<symbol id="twitter" viewBox="0 0 12 9.7">
		    <path d="M10.8,2.4c0,0.1,0,.2,0,0.3a6.9,6.9,0,0,1-7,7A7,7,0,0,1,0,8.6H0.6A4.9,4.9,0,0,0,3.6,7.6,2.5,2.5,0,0,1,1.3,5.9H2.5a2.5,2.5,0,0,1-2-2.4h0L1.6,3.7A2.5,2.5,0,0,1,.8.4,7,7,0,0,0,5.9,3a2.8,2.8,0,0,1-.1-0.6A2.5,2.5,0,0,1,10.1.8,4.8,4.8,0,0,0,11.7.2a2.5,2.5,0,0,1-1.1,1.4L12,1.2A5.3,5.3,0,0,1,10.8,2.4Z" />
		</symbol>

		<symbol id="instagram" viewBox="0 0 512 512">
		    <g><path d="M256 49.5c67.3 0 75.2 0.3 101.8 1.5 24.6 1.1 37.9 5.2 46.8 8.7 11.8 4.6 20.2 10 29 18.8 8.8 8.8 14.3 17.2 18.8 29 3.4 8.9 7.6 22.2 8.7 46.8 1.2 26.6 1.5 34.5 1.5 101.8s-0.3 75.2-1.5 101.8c-1.1 24.6-5.2 37.9-8.7 46.8 -4.6 11.8-10 20.2-18.8 29 -8.8 8.8-17.2 14.3-29 18.8 -8.9 3.4-22.2 7.6-46.8 8.7 -26.6 1.2-34.5 1.5-101.8 1.5s-75.2-0.3-101.8-1.5c-24.6-1.1-37.9-5.2-46.8-8.7 -11.8-4.6-20.2-10-29-18.8 -8.8-8.8-14.3-17.2-18.8-29 -3.4-8.9-7.6-22.2-8.7-46.8 -1.2-26.6-1.5-34.5-1.5-101.8s0.3-75.2 1.5-101.8c1.1-24.6 5.2-37.9 8.7-46.8 4.6-11.8 10-20.2 18.8-29 8.8-8.8 17.2-14.3 29-18.8 8.9-3.4 22.2-7.6 46.8-8.7C180.8 49.7 188.7 49.5 256 49.5M256 4.1c-68.4 0-77 0.3-103.9 1.5C125.3 6.8 107 11.1 91 17.3c-16.6 6.4-30.6 15.1-44.6 29.1 -14 14-22.6 28.1-29.1 44.6 -6.2 16-10.5 34.3-11.7 61.2C4.4 179 4.1 187.6 4.1 256c0 68.4 0.3 77 1.5 103.9 1.2 26.8 5.5 45.1 11.7 61.2 6.4 16.6 15.1 30.6 29.1 44.6 14 14 28.1 22.6 44.6 29.1 16 6.2 34.3 10.5 61.2 11.7 26.9 1.2 35.4 1.5 103.9 1.5s77-0.3 103.9-1.5c26.8-1.2 45.1-5.5 61.2-11.7 16.6-6.4 30.6-15.1 44.6-29.1 14-14 22.6-28.1 29.1-44.6 6.2-16 10.5-34.3 11.7-61.2 1.2-26.9 1.5-35.4 1.5-103.9s-0.3-77-1.5-103.9c-1.2-26.8-5.5-45.1-11.7-61.2 -6.4-16.6-15.1-30.6-29.1-44.6 -14-14-28.1-22.6-44.6-29.1 -16-6.2-34.3-10.5-61.2-11.7C333 4.4 324.4 4.1 256 4.1L256 4.1zM256 126.6c-71.4 0-129.4 57.9-129.4 129.4S184.6 385.4 256 385.4 385.4 327.4 385.4 256 327.4 126.6 256 126.6zM256 340c-46.4 0-84-37.6-84-84s37.6-84 84-84c46.4 0 84 37.6 84 84S302.4 340 256 340z"/><circle cx="390.5" cy="121.5" r="30.2"/></g>
		</symbol>

		<symbol id="linkedin" viewBox="0 0 12 11.5">
		    <path d="M1.4,2.7h0A1.3,1.3,0,0,1,0,1.3,1.3,1.3,0,0,1,1.5,0,1.3,1.3,0,0,1,2.9,1.3,1.3,1.3,0,0,1,1.4,2.7Zm1.3,8.8H0.1V3.7H2.7v7.7Zm9.3,0H9.4V7.3c0-1-.4-1.7-1.3-1.7a1.4,1.4,0,0,0-1.3.9,1.9,1.9,0,0,0-.1.6v4.3H4.1c0-7,0-7.7,0-7.7H6.7V4.9h0A2.6,2.6,0,0,1,9,3.5c1.7,0,3,1.1,3,3.5v4.4Z" />
		</symbol>

		<symbol id="skype" viewBox="0 0 12 12">
		    <path d="M9,12a3,3,0,0,1-1.8-.6H6A5.5,5.5,0,0,1,.5,6,5.8,5.8,0,0,1,.6,4.8,3,3,0,0,1,4.8.6H6A5.5,5.5,0,0,1,11.5,6a5.8,5.8,0,0,1-.1,1.2A3,3,0,0,1,9,12ZM6.7,5.2L5.9,5c-0.6-.1-1-0.2-1-0.7S5.3,3.7,6,3.7s1.3,0.9,2,.9a0.8,0.8,0,0,0,.8-0.9c0-.9-1.5-1.5-3-1.5s-2.9.6-2.9,2.2S3.8,6.3,5,6.5L6.1,6.8C6.8,7,7.2,7.1,7.2,7.6a0.9,0.9,0,0,1-1.1.7c-1.4,0-1.5-1.2-2.4-1.2a0.8,0.8,0,0,0-.8.8c0,1,1.5,1.7,3.2,1.7s3-.7,3-2.3S7.8,5.5,6.7,5.2Z" />
		</symbol>

		<symbol id="github" viewBox="0 0 12 10.2">
		    <path d="M11.6,8c-1,1.9-3.6,2.1-5.4,2.1S1.4,10,.4,8A5.3,5.3,0,0,1,0,5.7,4.3,4.3,0,0,1,1,2.8,4,4,0,0,1,.8,1.6,3.5,3.5,0,0,1,1.2,0,4.2,4.2,0,0,1,3.9,1.2l2.2-.3,2,0.2A4.1,4.1,0,0,1,10.8,0a3.5,3.5,0,0,1,.4,1.6A3.8,3.8,0,0,1,11,2.8a4.3,4.3,0,0,1,1,2.9A5.4,5.4,0,0,1,11.6,8Zm-3-3.2L7.1,5H4.9L3.5,4.8A1.9,1.9,0,0,0,1.6,6.9c0,2.2,2,2.5,3.8,2.5H6.6c1.8,0,3.8-.3,3.8-2.5A1.9,1.9,0,0,0,8.5,4.8ZM3.7,8.3a1.3,1.3,0,0,1-.9-1.4,1.3,1.3,0,0,1,.9-1.4,1.3,1.3,0,0,1,.9,1.4A1.3,1.3,0,0,1,3.7,8.3Zm4.6,0a1.3,1.3,0,0,1-.9-1.4,1.3,1.3,0,0,1,.9-1.4,1.3,1.3,0,0,1,.9,1.4A1.3,1.3,0,0,1,8.3,8.3Z" />
		</symbol>

		<symbol id="codepen" viewBox="0 0 12 12">
		    <path d="M12,7.8a0.5,0.5,0,0,1-.2.4L6.3,11.9H5.7L0.2,8.3A0.5,0.5,0,0,1,0,7.8V4.2A0.5,0.5,0,0,1,.2,3.7L5.7,0.1H6.3l5.5,3.7a0.5,0.5,0,0,1,.2.4V7.8ZM2.3,6L1,5.1V6.9ZM5.5,3.9V1.5l-4,2.7L3.2,5.4Zm0,6.6V8.1L3.2,6.6,1.4,7.8ZM7.8,6L6,4.8,4.2,6,6,7.2Zm2.7-1.8-4-2.7V3.9L8.8,5.4Zm0,3.7L8.8,6.6,6.5,8.1v2.4Zm0.4-1V5.1L9.7,6Z" />
		</symbol>

		<symbol id="stack-overflow" viewBox="0 0 12 14.2">
		    <path d="M10.1,12.9V9.1h1.3v5.1H0V9.1H1.3v3.8h8.9ZM2.5,11.7H8.9V10.4H2.5v1.3ZM2.7,8.8l6.2,1.3L9.1,8.8,2.9,7.5Zm0.8-3L9.2,8.5,9.8,7.3,4,4.7ZM5.1,3L9.9,7.1l0.8-1L5.9,2ZM8.2,0l-1,.8L11,5.8l1-.8Z" />
		</symbol>

		<symbol id="dribbble" viewBox="0 0 12 12">
		    <path d="M6,12a6,6,0,1,1,6-6A6,6,0,0,1,6,12ZM6.1,5.1a18.8,18.8,0,0,1-5.3.7A1.2,1.2,0,0,0,.9,6,5.1,5.1,0,0,0,2.2,9.4,8.1,8.1,0,0,1,6.4,6H6.6ZM3.8,1.4A5.1,5.1,0,0,0,1,4.9a19.4,19.4,0,0,0,4.7-.6A31,31,0,0,0,3.8,1.4ZM6.9,6.8h0s-3,1.1-4,3.2H2.7a5.1,5.1,0,0,0,5.3.8A21.6,21.6,0,0,0,6.9,6.8ZM4.8,1h0ZM6,0.9H4.8A25,25,0,0,1,6.7,4,5.5,5.5,0,0,0,9.4,2.2,5.1,5.1,0,0,0,6,.9Zm4,1.9a6.7,6.7,0,0,1-2.9,2L7.4,5.5V5.8a12,12,0,0,1,3.6.2A5.1,5.1,0,0,0,10,2.7ZM7.9,6.6a22.9,22.9,0,0,1,1,3.7,5.1,5.1,0,0,0,2.2-3.4A7.6,7.6,0,0,0,7.9,6.6Z" />
		</symbol>

		<symbol id="behance" viewBox="0 0 12 7.5">
		    <path d="M3.5,0C4.7,0,5.8.4,5.8,1.8a1.6,1.6,0,0,1-1,1.5A1.8,1.8,0,0,1,6.2,5.2c0,1.5-1.3,2.1-2.6,2.1H0V0H3.5ZM3.3,3a0.8,0.8,0,0,0,1-.9,0.9,0.9,0,0,0-1.1-.8H1.6V3H3.3ZM3.4,6.1a1,1,0,0,0,1.2-1A1,1,0,0,0,3.4,4.1H1.6v2H3.4Zm7.2-.4h1.3A2.4,2.4,0,0,1,9.4,7.5,2.6,2.6,0,0,1,6.7,4.7,2.7,2.7,0,0,1,9.4,1.9,2.6,2.6,0,0,1,12,4.8V5.1H8.1A1.2,1.2,0,0,0,9.4,6.4,1.2,1.2,0,0,0,10.6,5.7ZM7.8,0.5V1.2h3V0.5h-3ZM8.1,4.1h2.4A1.1,1.1,0,0,0,9.4,3,1.1,1.1,0,0,0,8.1,4.1Z" />
		</symbol>

		<symbol id="pinterest" viewBox="0 0 12 15.6">
		    <path d="M6.4,0C9.3,0,12,2,12,5.1s-1.5,6.1-4.8,6.1A2.5,2.5,0,0,1,5,10.2c-0.7,2.8-.7,3.2-2.2,5.4H2.6c-0.1-.6-0.1-1.2-0.1-1.8S3.3,9.1,3.8,7.2a3.7,3.7,0,0,1-.3-1.6A2,2,0,0,1,5.2,3.5,1.2,1.2,0,0,1,6.4,4.8c0,1.2-.8,2.4-0.8,3.5A1.4,1.4,0,0,0,7,9.7C9.2,9.7,9.8,6.6,9.8,5S8.3,1.5,6.1,1.5A4.2,4.2,0,0,0,1.7,5.8a5.1,5.1,0,0,0,.7,2.1A1.3,1.3,0,0,1,2,9H1.8C0.5,8.6,0,6.8,0,5.6,0,2.1,3.2,0,6.4,0Z" />
		</symbol>

		<symbol id="tumblr" viewBox="0 0 12 20.9">
		    <path d="M12,19.7c-0.4.6-2.1,1.2-3.6,1.2-4.6.1-6.3-3.2-6.3-5.6V8.5H0V5.8A6.4,6.4,0,0,0,4.1.2L4.3,0H7.3V5.3h4.2V8.5H7.3V15a1.8,1.8,0,0,0,2,2.1,4.8,4.8,0,0,0,1.7-.4Z" />
		</symbol>

		<symbol id="youtube" viewBox="0 0 12 14.5">
		    <path d="M11.8,13.2a1.5,1.5,0,0,1-1.3,1.2,39.6,39.6,0,0,1-4.5.2,39.6,39.6,0,0,1-4.5-.2A1.5,1.5,0,0,1,.2,13.2,12.8,12.8,0,0,1,0,10.3,13.2,13.2,0,0,1,.2,7.5,1.5,1.5,0,0,1,1.5,6.3,41.4,41.4,0,0,1,6,6.2a41.6,41.6,0,0,1,4.5.2,1.5,1.5,0,0,1,1.3,1.2,12.7,12.7,0,0,1,.2,2.8A13.3,13.3,0,0,1,11.8,13.2ZM3.4,8.3V7.6H0.9V8.3H1.7v4.6H2.6V8.3H3.4ZM4.7,0l-1,3.2V5.4H3V3.2a12.9,12.9,0,0,0-.5-1.7L1.9,0H2.8L3.4,2.1,3.9,0H4.7ZM5.6,12.9v-4H4.9V12a0.6,0.6,0,0,1-.5.3l-0.2-.2a1.9,1.9,0,0,1,0-.3V8.9H3.5v3.2a2,2,0,0,0,.1.6,0.4,0.4,0,0,0,.5.3,1.2,1.2,0,0,0,.8-0.5v0.4H5.6ZM6.9,4.1a1.6,1.6,0,0,1-.2,1,1,1,0,0,1-.9.4A1,1,0,0,1,5,5.1a1.6,1.6,0,0,1-.2-1V2.7A1.6,1.6,0,0,1,5,1.7a1,1,0,0,1,.9-0.4,1,1,0,0,1,.9.4,1.6,1.6,0,0,1,.2.9V4.1ZM6.2,2.6C6.2,2.2,6.1,2,5.8,2s-0.3.2-.3,0.6V4.3c0,0.4.1,0.6,0.3,0.6s0.3-.2.3-0.6V2.6Zm2.2,7.6a2.8,2.8,0,0,0-.1-0.8,0.6,0.6,0,0,0-.6-0.5,1,1,0,0,0-.8.4V7.6H6.2v5.4H7V12.5a1,1,0,0,0,.8.4,0.6,0.6,0,0,0,.6-0.4,2.9,2.9,0,0,0,.1-0.8V10.1ZM7.6,11.8c0,0.4-.1.5-0.3,0.5L7,12.1V9.7l0.4-.2c0.2,0,.3.2,0.3,0.5v1.7Zm2-6.4H8.9V5a1.2,1.2,0,0,1-.8.5,0.5,0.5,0,0,1-.5-0.3,2.1,2.1,0,0,1-.1-0.6V1.4H8.3v3a1.8,1.8,0,0,0,0,.3,0.2,0.2,0,0,0,.2.2,0.6,0.6,0,0,0,.5-0.3V1.4H9.6v4Zm1.5,6.1H10.4a4.3,4.3,0,0,1,0,.5,0.3,0.3,0,0,1-.3.3c-0.3,0-.4-0.2-0.4-0.6V11.1h1.4V10.2a1.6,1.6,0,0,0-.2-0.9,1.1,1.1,0,0,0-1.7,0,1.5,1.5,0,0,0-.2.9v1.4a1.5,1.5,0,0,0,.2.9,1,1,0,0,0,.9.4,1,1,0,0,0,.9-0.4,0.9,0.9,0,0,0,.2-0.4,3.2,3.2,0,0,0,0-.5h0Zm-0.7-1.1H9.7V10.1c0-.4.1-0.6,0.4-0.6s0.4,0.2.4,0.6v0.4Z" />
		</symbol>

		<symbol id="vimeo" viewBox="0 0 12 10.4">
		    <path d="M9.5,7.2c-1.6,2.1-3,3.2-4.1,3.2S4.1,9.7,3.6,8.4l-1-3.6C2.3,3.6,1.9,3,1.5,3l-0.9.6L0,2.8,1.8,1.2A3.8,3.8,0,0,1,3.5.2C4.5,0.1,5,.7,5.3,2.1s0.4,2.4.5,2.7,0.6,1.8.9,1.8A2.3,2.3,0,0,0,7.8,5.5a4.7,4.7,0,0,0,.8-1.8,0.8,0.8,0,0,0-.8-1l-0.9.2Q7.8-.1,10.3,0c1.2,0,1.8.8,1.7,2.4S11.1,5.2,9.5,7.2Z" />
		</symbol>

		<symbol id="500px" viewBox="0 0 12 15.4">
		    <path d="M11.9,13.4a7,7,0,0,1-7.7,1.5A6.9,6.9,0,0,1,2,13.4,6.9,6.9,0,0,1,.5,11.1,6.8,6.8,0,0,1,0,9.5c0-.2.3-0.3,0.4-0.3s0.4,0,.5.2h0a6.9,6.9,0,0,0,.4,1.4,5.8,5.8,0,0,0,1.3,1.9,6.1,6.1,0,0,0,8.6,0h0.3l0.3,0.2c0.3,0.3.2,0.4,0.1,0.5H11.9Zm-0.4-2.9a5.1,5.1,0,0,1-2.7,2.7,5.1,5.1,0,0,1-3.9,0,5.1,5.1,0,0,1-1.6-1.1,4.9,4.9,0,0,1-1.1-1.6V10.1h0C2,9.9,2.4,9.8,2.5,9.8s0.4-.1.5,0.1a4.9,4.9,0,0,0,.8,1.4h0V8.4h0a2.9,2.9,0,0,1,.9-2,3.1,3.1,0,0,1,2.2-.9,3,3,0,1,1,0,6.1h-1s-0.2-.1-0.1-0.5,0.1-.4.4-0.4H6.8A2.1,2.1,0,0,0,9,8.5,2.1,2.1,0,0,0,8.4,7a2.1,2.1,0,0,0-1.5-.6,2,2,0,0,0-1.5.7,2.2,2.2,0,0,0-.6,1.4v3.6a4,4,0,0,0,2.1.6,4.2,4.2,0,0,0,2.9-1.2A4.1,4.1,0,0,0,3.9,5.6l-0.7.7h0a0.5,0.5,0,0,1-.6.2,0.5,0.5,0,0,1-.4-0.4V0.3A0.3,0.3,0,0,1,2.5,0h7.5c0.3,0,.3.4,0.3,0.5s0,0.5-.3.5h-7V5.1h0A6.4,6.4,0,0,1,4.9,3.9a5.2,5.2,0,0,1,2-.4,4.9,4.9,0,0,1,2,.4A5.1,5.1,0,0,1,11.5,10.5Zm0-6.5-0.3.2H11.1A6.5,6.5,0,0,0,9.3,3a5.9,5.9,0,0,0-2.4-.5A6.5,6.5,0,0,0,4.7,3C4.4,3,4.3,2.8,4.3,2.6a0.8,0.8,0,0,1-.1-0.3V2.1a6.8,6.8,0,0,1,2.6-.5,7,7,0,0,1,2.7.6,6.5,6.5,0,0,1,2,1.3C11.8,3.7,11.7,3.8,11.6,4ZM7.3,8.6L7.9,9.1c0.1,0.1.2,0.2-.1,0.4H7.4L6.8,9.1l-0.6.6H5.8a0.4,0.4,0,0,1-.2-0.2H5.8l0.6-.6L5.8,8c-0.1-.1-0.1-0.2.1-0.4l0.3-.2H6.3L6.8,8.1l0.6-.6c0.1-.1.2-0.1,0.4,0.1a0.3,0.3,0,0,1,.1.4Z" />
		</symbol>

		<symbol id="flickr" viewBox="0 0 12 12">
		    <path d="M12,2.3V9.8A2.3,2.3,0,0,1,9.8,12H2.3A2.3,2.3,0,0,1,0,9.8V2.3A2.3,2.3,0,0,1,2.3,0H9.8A2.3,2.3,0,0,1,12,2.3ZM3.8,4.3A1.7,1.7,0,1,0,5.5,6,1.7,1.7,0,0,0,3.8,4.3Zm4.4,0A1.7,1.7,0,1,0,9.9,6,1.7,1.7,0,0,0,8.2,4.3Z" />
		</symbol>

		<symbol id="spotify" viewBox="0 0 12 8">
		    <path d="M9.8,7.5a0.5,0.5,0,0,1-.5.5H8.9A8.5,8.5,0,0,0,4.5,6.7L1.9,7H1.5A0.5,0.5,0,0,1,.9,6.6,0.5,0.5,0,0,1,1.4,6a14.9,14.9,0,0,1,3.2-.4A9.5,9.5,0,0,1,9.4,6.9,0.6,0.6,0,0,1,9.8,7.5Z" /><path d="M10.8,5.1a0.6,0.6,0,0,1-.7.7H9.7A10.7,10.7,0,0,0,4.4,4.3a10.6,10.6,0,0,0-2.8.4H1.2A0.7,0.7,0,0,1,.6,4.1a0.7,0.7,0,0,1,.5-0.7,11.2,11.2,0,0,1,3.3-.5,11.8,11.8,0,0,1,6,1.6A0.7,0.7,0,0,1,10.8,5.1Z" /><path d="M12,2.4a0.8,0.8,0,0,1-.8.8H10.8A12.8,12.8,0,0,0,4.6,1.6,12.5,12.5,0,0,0,1.2,2H0.8A0.8,0.8,0,0,1,0,1.3,0.8,0.8,0,0,1,.6.5a14.4,14.4,0,0,1,4-.5,14.4,14.4,0,0,1,7,1.6A0.8,0.8,0,0,1,12,2.4Z" />
		</symbol>

		<symbol id="steam" viewBox="0 0 12 10.3">
		    <path d="M9,6.1L6,8.2a2.3,2.3,0,0,1-4.5.3L0,7.9V5L2.6,6.1a2.2,2.2,0,0,1,1.2-.3H4L5.9,3A3.1,3.1,0,1,1,9,6.1Zm-5.2.2H3.4L4.1,6.7a1.3,1.3,0,1,1-1,2.5L2.3,8.8A1.7,1.7,0,1,0,3.8,6.3ZM9,1a2,2,0,1,0,2,2A2,2,0,0,0,9,1ZM9,4.7A1.6,1.6,0,1,1,10.6,3,1.6,1.6,0,0,1,9,4.7Z" />
		</symbol>

		<symbol id="wordpress" viewBox="0 0 12 12">
		    <path d="M12,6A6,6,0,1,1,6,0,6,6,0,0,1,12,6ZM11.7,6A5.7,5.7,0,1,0,6,11.7,5.7,5.7,0,0,0,11.7,6ZM1.3,3.9l2.5,6.7A5.1,5.1,0,0,1,1.3,3.9ZM9.1,7.4L8.6,9.1,6.7,3.6H7.3a0.2,0.2,0,0,0,0-.4H4.5a0.2,0.2,0,0,0,0,.4H5L5.8,5.8,4.7,9.2,2.8,3.6H3.4a0.2,0.2,0,0,0,0-.4H1.7a5.1,5.1,0,0,1,7.8-1H9.4a0.9,0.9,0,0,0-.9.9,2.4,2.4,0,0,0,.5,1.2,2.7,2.7,0,0,1,.4,1.4A6.6,6.6,0,0,1,9.1,7.4ZM7.7,10.8h0a5.1,5.1,0,0,1-1.7.3l-1.5-.2L6.1,6.4ZM11.1,6a5.1,5.1,0,0,1-2.6,4.4l1.6-4.5a5.7,5.7,0,0,0,.4-1.8,3.3,3.3,0,0,0,0-.5A5.1,5.1,0,0,1,11.1,6Z" />
		</symbol>

		<symbol id="bitcoin" viewBox="0 0 8.1 11.1">
			<path d="M6.6 5.2C7.5 5.4 8.2 6 8 7.3 7.9 8.9 6.7 9.3 5 9.4v1.7h-1V9.5c-0.3 0-0.5 0-0.8 0v1.7h-1V9.4c-0.2 0-0.5 0-0.7 0H0l0.2-1.2c0.8 0 0.7 0 0.7 0 0.3 0 0.4-0.2 0.4-0.3V5.2c0 0 0.1 0 0.1 0 0 0-0.1 0-0.1 0V3.2c0-0.2-0.2-0.5-0.6-0.5 0 0 0 0-0.7 0V1.7l1.4 0c0.2 0 0.4 0 0.6 0V0h1v1.7c0.3 0 0.5 0 0.8 0V0h1v1.7c1.3 0.1 2.4 0.5 2.5 1.7C7.5 4.3 7.2 4.9 6.6 5.2zM3.1 2.9v2.1c0.6 0 2.4 0.1 2.4-1C5.5 2.7 3.7 2.9 3.1 2.9zM3.1 5.9v2.3C3.8 8.2 6 8.4 6 7.1 6 5.8 3.8 5.9 3.1 5.9z"/>
		</symbol>

		<symbol id="pocket" viewBox="0 0 11.5 10.3">
			<path d="M11.5 1v3.5c0 3.2-2.6 5.8-5.8 5.8C2.6 10.3 0 7.7 0 4.5V1c0-0.6 0.5-1 1-1h9.4C11.1 0 11.5 0.5 11.5 1zM6.3 6.9L9 4.3C9.2 4.2 9.3 4 9.3 3.7c0-0.4-0.4-0.8-0.8-0.8C8.3 2.9 8.1 3 7.9 3.2L5.8 5.2 3.6 3.2C3.5 3 3.3 2.9 3.1 2.9c-0.4 0-0.8 0.4-0.8 0.8 0 0.2 0.1 0.4 0.2 0.6l2.7 2.6C5.4 7 5.6 7.1 5.8 7.1 6 7.1 6.2 7 6.3 6.9z"/>
		</symbol>

		<symbol id="applemusic" viewBox="0 0 215.7 274.2">
			<path d="M215.5 7.5L215.5 7.5c-2.2-6.7-4.8-8.3-11.8-7.2 -2.1 0.3-97.1 19.3-129.1 25.8 -6.1 1.2-10.2 4.5-11.6 10.7l0 0c0 51.5-0.1 103.1-0.1 154.6l0 0 0 0c0 2.3-0.2 4.5-0.9 6.7 -1.6 4-4.6 6.3-8.8 7.2 -4.5 0.9-9 1.8-13.5 2.8 -8.2 1.8-16.4 3.4-23.8 7.6 -8.9 5.1-14.3 12.6-15.4 23l0 0c-0.9 4.6-0.4 9 1 13.4 0.1 0.5 0.2 1.1 0.4 1.6 6.2 17.8 24.3 22.9 39.4 19.5 2.7-0.1 5.3-0.8 7.9-1.5 15.3-3.8 24.8-13.4 28.1-28.8 1.8-8.5 1.2-143.2 1.3-145.4 0.2-5.4 2.3-7.9 7.5-9.2 2-0.5 97.3-19.7 104.9-21.2 5.6-1.1 8 0.4 9.3 5.9 0 8.5 0 84.8 0 92.4l0 0 0 0c-0.1 1.3-0.3 2.6-0.4 3.8 -1.4 4.9-4.9 7.4-9.7 8.4 -4.2 0.9-8.4 1.7-12.6 2.6 -8.3 1.7-16.5 3.6-24 7.6 -9.3 5.1-14.7 12.9-16.1 23.4l0 0c-0.9 3.1-0.4 6.1 0 9.2 1.8 12.4 13.2 23.6 25.7 25.4 8.4 1.2 16.5-0.1 24.6-2.1 18.2-4.5 27.2-19.3 27.9-33.8C215.5 142.7 215.5 75.1 215.5 7.5z"/>
		</symbol>

		<symbol id="email" viewBox="0 0 12 9.4">
		    <path d="M12,8.4a1.1,1.1,0,0,1-1.1,1.1H1.1A1.1,1.1,0,0,1,0,8.4V1.1A1.1,1.1,0,0,1,1.1,0h9.9A1.1,1.1,0,0,1,12,1.1V8.4ZM10.9,0.9H1.1a0.2,0.2,0,0,0-.2.2A2.4,2.4,0,0,0,1.8,3L4.5,5.1A3.3,3.3,0,0,0,6,6H6a3.3,3.3,0,0,0,1.5-.9L10.2,3a2.6,2.6,0,0,0,1-1.7C11.1,1.2,11.2.9,10.9,0.9Zm0.2,2.4-0.5.4L7.8,5.9A3.1,3.1,0,0,1,6,6.9H6a3.1,3.1,0,0,1-1.8-.9L1.3,3.7,0.9,3.2V8.4a0.2,0.2,0,0,0,.2.2h9.9a0.2,0.2,0,0,0,.2-0.2V3.2Z" />
		</symbol>

		<symbol id="rss" viewBox="0 0 12 12">
		    <path d="M11.8,11.8l-0.4.2H10.2a0.5,0.5,0,0,1-.5-0.5A9.8,9.8,0,0,0,.5,2.3,0.5,0.5,0,0,1,0,1.8V0.5A0.5,0.5,0,0,1,.2.2L0.5,0h0A12,12,0,0,1,8.5,3.5,12,12,0,0,1,12,11.4,0.5,0.5,0,0,1,11.8,11.8Zm-4.4,0L7.1,12H5.9a0.5,0.5,0,0,1-.5-0.5A5.5,5.5,0,0,0,.5,6.6,0.5,0.5,0,0,1,0,6.1V4.9A0.5,0.5,0,0,1,.2,4.5H0.6A7.7,7.7,0,0,1,5.4,6.6a7.7,7.7,0,0,1,2.2,4.8A0.6,0.6,0,0,1,7.5,11.8ZM1.6,12a1.6,1.6,0,1,1,1.6-1.6A1.6,1.6,0,0,1,1.6,12Z" />
		</symbol>
	</defs>
</svg>