<svg xmlns="http://www.w3.org/2000/svg" version="1.1" x="0px" y="0px" viewBox="0 0 112.97 116.62" enable-background="new 0 0 112.97 116.62" xml:space="preserve"><path fill="#fff" d="M64.32 99.84c3.63-0.05 6.35-1.5 8.09-4.32 0.89-1.44 1.28-2.89 1.45-3.7C71.58 91.88 65.65 92.74 64.32 99.84z"/><path fill="#fff" d="M77.25 97.01c2.9-1.87 4.47-4.43 4.67-7.63 0.11-1.71-0.22-3.19-0.46-4.01 -0.71 0.48-1.91 1.41-2.92 2.79C76.65 90.74 76.22 93.72 77.25 97.01z"/><path fill="#fff" d="M71.4 107.47c2.22 0 4.09-0.64 5.05-1.06 -1.16-1.15-4.14-3.65-8.29-3.65 -1.6 0-3.23 0.37-4.86 1.1C65.6 106.26 68.32 107.47 71.4 107.47z"/><path fill="#fff" d="M81.18 104.36c2.45 0 4.5-0.91 5.49-1.44 -1.07-1.06-3.83-3.4-7.59-3.4 -1.74 0-3.5 0.5-5.25 1.47C75.95 103.23 78.42 104.36 81.18 104.36z"/><path fill="#fff" d="M88.58 99.68c3.51 0 6.17-2.02 7.24-2.97 -1.03-0.62-3.27-1.77-5.96-1.77 -2.53 0-4.87 0.99-6.97 2.95C84.75 99.08 86.66 99.68 88.58 99.68z"/><path fill="#fff" d="M95.08 92.41c4.48 0 7.34-3.18 8.35-4.51 -0.83-0.3-2.38-0.76-4.19-0.76 -3.37 0-6.14 1.5-8.26 4.45C92.38 92.14 93.76 92.41 95.08 92.41z"/><path fill="#fff" d="M100.3 84.22c2.87 0 5.34-1.12 7.33-3.31 0.94-1.04 1.55-2.09 1.88-2.74 -0.52-0.09-1.29-0.2-2.21-0.2 -3.02 0-7.04 1.06-9.41 5.99C98.71 84.13 99.52 84.22 100.3 84.22z"/><path fill="#fff" d="M94.38 85.16c1.89-3.1 2.19-6.24 0.88-9.34 -0.71-1.67-1.73-2.92-2.33-3.56 -0.45 0.76-1.17 2.2-1.49 3.99C90.86 79.56 91.85 82.55 94.38 85.16z"/><path fill="#fff" d="M87.37 91.81c2.23-2.9 2.88-6.01 1.93-9.27 -0.52-1.75-1.39-3.12-1.92-3.84 -0.53 0.72-1.41 2.08-1.92 3.84C84.5 85.8 85.15 88.91 87.37 91.81z"/><path fill="#fff" d="M100.25 76.1c1.76-3.21 1.92-6.38 0.48-9.46 -0.78-1.66-1.85-2.87-2.48-3.5 -0.41 0.79-1.07 2.28-1.31 4.09C96.49 70.6 97.6 73.58 100.25 76.1z"/><path fill="#fff" d="M102.32 76.49c3.71-0.06 6.58-1.54 8.52-4.39 1-1.46 1.5-2.94 1.73-3.79 -1.05 0.04-3.07 0.26-5.08 1.3C104.85 70.98 103.11 73.29 102.32 76.49z"/><path fill="#fff" d="M106.12 68.75c3.43-1.33 5.6-3.67 6.46-6.97 0.46-1.76 0.42-3.35 0.34-4.24 -0.83 0.34-2.28 1.05-3.64 2.29C106.78 62.12 105.72 65.12 106.12 68.75z"/><path fill="#fff" d="M104.65 64.61c0.96-3.55 0.36-6.69-1.79-9.34 -1.14-1.41-2.46-2.32-3.21-2.78 -0.21 0.87-0.5 2.46-0.31 4.28C99.69 60.15 101.48 62.78 104.65 64.61z"/><path fill="#fff" d="M108.72 58.32c2.79-2.37 4.07-5.28 3.82-8.66 -0.14-1.83-0.71-3.34-1.07-4.16 -0.67 0.59-1.81 1.75-2.68 3.35C107.17 51.83 107.15 55.02 108.72 58.32z"/><path fill="#fff" d="M107.93 46.57c2.27-2.89 2.95-6.01 2.01-9.29 -0.5-1.75-1.35-3.1-1.87-3.82 -0.54 0.71-1.43 2.07-1.96 3.82C105.12 40.52 105.73 43.65 107.93 46.57z"/><path fill="#fff" d="M105.48 52.17c0.41-3.76-0.72-6.79-3.35-9.02 -1.44-1.22-2.99-1.88-3.85-2.19 -0.08 0.9-0.12 2.59 0.39 4.41C99.61 48.7 101.89 50.98 105.48 52.17z"/><path fill="#fff" d="M103.28 41.59c0.2-3.81-1.13-6.7-3.95-8.62 -1.57-1.06-3.22-1.54-4.09-1.73 -0.03 0.89 0.02 2.61 0.66 4.39C97.07 38.84 99.54 40.84 103.28 41.59z"/><path fill="#fff" d="M48.65 99.84c-3.63-0.05-6.35-1.5-8.09-4.32 -0.89-1.44-1.28-2.89-1.45-3.7C41.39 91.88 47.32 92.74 48.65 99.84z"/><path fill="#fff" d="M35.72 97.01c-2.9-1.87-4.47-4.43-4.67-7.63 -0.11-1.71 0.22-3.19 0.46-4.01 0.71 0.48 1.91 1.41 2.92 2.79C36.32 90.74 36.76 93.72 35.72 97.01z"/><path fill="#fff" d="M41.57 107.47c-2.22 0-4.09-0.64-5.05-1.06 1.16-1.15 4.14-3.65 8.28-3.65 1.6 0 3.23 0.37 4.86 1.1C47.38 106.26 44.66 107.47 41.57 107.47z"/><path fill="#fff" d="M31.8 104.36c-2.44 0-4.5-0.91-5.49-1.44 1.07-1.06 3.83-3.4 7.59-3.4 1.74 0 3.5 0.5 5.25 1.47C37.02 103.23 34.55 104.36 31.8 104.36z"/><path fill="#fff" d="M24.4 99.68c-3.51 0-6.17-2.02-7.24-2.97 1.02-0.62 3.27-1.77 5.96-1.77 2.53 0 4.87 0.99 6.97 2.95C28.22 99.08 26.31 99.68 24.4 99.68z"/><path fill="#fff" d="M17.89 92.41c-4.48 0-7.34-3.18-8.35-4.51 0.83-0.3 2.38-0.76 4.19-0.76 3.37 0 6.14 1.5 8.26 4.45C20.59 92.14 19.21 92.41 17.89 92.41z"/><path fill="#fff" d="M12.67 84.22c-2.87 0-5.34-1.12-7.33-3.31 -0.94-1.04-1.55-2.09-1.88-2.74 0.52-0.09 1.29-0.2 2.21-0.2 3.02 0 7.04 1.06 9.41 5.99C14.26 84.13 13.45 84.22 12.67 84.22z"/><path fill="#fff" d="M18.59 85.16c-1.89-3.1-2.19-6.24-0.88-9.34 0.71-1.67 1.73-2.92 2.33-3.56 0.45 0.76 1.17 2.2 1.49 3.99C22.11 79.56 21.13 82.55 18.59 85.16z"/><path fill="#fff" d="M25.6 91.81c-2.23-2.9-2.88-6.01-1.93-9.27 0.51-1.75 1.39-3.12 1.92-3.84 0.53 0.72 1.41 2.08 1.92 3.84C28.47 85.8 27.83 88.91 25.6 91.81z"/><path fill="#fff" d="M12.72 76.1c-1.76-3.21-1.92-6.38-0.48-9.46 0.78-1.66 1.85-2.87 2.48-3.5 0.41 0.79 1.07 2.28 1.31 4.09C16.49 70.6 15.37 73.58 12.72 76.1z"/><path fill="#fff" d="M10.65 76.49c-3.71-0.06-6.58-1.54-8.52-4.39 -1-1.46-1.5-2.94-1.73-3.79 1.05 0.04 3.07 0.26 5.08 1.3C8.12 70.98 9.86 73.29 10.65 76.49z"/><path fill="#fff" d="M6.86 68.75c-3.43-1.33-5.6-3.67-6.46-6.97 -0.46-1.76-0.42-3.35-0.34-4.24 0.83 0.34 2.28 1.05 3.64 2.29C6.19 62.12 7.26 65.12 6.86 68.75z"/><path fill="#fff" d="M8.32 64.61c-0.96-3.55-0.36-6.69 1.79-9.34 1.14-1.41 2.46-2.32 3.21-2.78 0.21 0.87 0.5 2.46 0.31 4.28C13.28 60.15 11.49 62.78 8.32 64.61z"/><path fill="#fff" d="M4.25 58.32c-2.79-2.37-4.07-5.28-3.82-8.66 0.14-1.83 0.71-3.34 1.07-4.16 0.67 0.59 1.81 1.75 2.68 3.35C5.8 51.83 5.82 55.02 4.25 58.32z"/><path fill="#fff" d="M5.04 46.57c-2.27-2.89-2.94-6.01-2-9.29 0.5-1.75 1.35-3.1 1.87-3.82 0.54 0.71 1.43 2.07 1.96 3.82C7.85 40.52 7.24 43.65 5.04 46.57z"/><path fill="#fff" d="M7.49 52.17c-0.41-3.76 0.72-6.79 3.35-9.02 1.44-1.22 2.99-1.88 3.84-2.19 0.08 0.9 0.12 2.59-0.39 4.41C13.37 48.7 11.08 50.98 7.49 52.17z"/><path fill="#fff" d="M9.69 41.59c-0.2-3.81 1.13-6.7 3.95-8.62 1.57-1.06 3.22-1.54 4.09-1.73 0.03 0.89-0.02 2.61-0.66 4.39C15.91 38.84 13.43 40.84 9.69 41.59z"/><path fill="#fff" d="M62.79 116.62c-2.9-1.87-4.47-4.43-4.67-7.63 -0.11-1.71 0.22-3.19 0.46-4.01 0.71 0.48 1.91 1.41 2.92 2.79C63.39 110.35 63.83 113.33 62.79 116.62z"/><path fill="#fff" d="M50.18 116.62c2.9-1.87 4.47-4.43 4.67-7.63 0.11-1.71-0.22-3.19-0.46-4.01 -0.71 0.48-1.91 1.41-2.92 2.79C49.58 110.35 49.15 113.33 50.18 116.62z"/><path fill="#fff" d="M84.88 62.95c-0.68 2.71-3.68 8.17-7.72 9.85 -4.04 1.68 2.33 1.52 3.3 1.27 0.97-0.26 0.97 1.06-1.64 3.29 -2.61 2.23-9.58 6.85-14.23 3.8 0 0-3.02-1.5-3.06-6.12 0-0.39-0.01-1.01-0.01-1.79 -1.64 0.44-3.32 0.67-5.02 0.67 -1.7 0-3.38-0.23-5.02-0.68 -0.01 0.78-0.01 1.4-0.01 1.79 -0.03 4.62-3.06 6.12-3.06 6.12 -4.65 3.05-11.61-1.57-14.22-3.8 -2.62-2.23-2.62-3.55-1.65-3.29 0.97 0.25 7.33 0.42 3.3-1.27 -4.04-1.68-7.04-7.14-7.72-9.85 -0.68-2.71-3.04 9.53-1.72 14.08 1.32 4.55 2.07 2 2.52 0.74 0.45-1.26 0.84-0.84 0.84-0.84 1.26 4.65 9.11 11.72 15.79 14.34 6.69 2.61 10.95 11.48 10.95 11.48s4.26-8.87 10.95-11.48c6.68-2.62 14.54-9.69 15.8-14.34 0 0 0.38-0.42 0.84 0.84 0.45 1.26 1.19 3.81 2.52-0.74C87.91 72.48 85.55 60.24 84.88 62.95z"/><path fill="#fff" d="M77.55 62.8c-0.81-0.15-0.73-0.52-0.73-0.52 0.11-0.27-0.02-0.59-0.29-0.71 -0.15-0.06-2.72-1.13-2.72-1.13 1.22-3.64 1.3-7.68 0.02-11.55 0 0 2.57-1.06 2.72-1.12 0.27-0.11 0.4-0.43 0.29-0.7 0 0-0.08-0.37 0.74-0.52 0.81-0.15 5.2-0.76 4.53-2.47 -0.74-1.69-4.28 0.96-4.96 1.44 -0.68 0.46-0.89 0.14-0.89 0.14 -0.12-0.28-0.43-0.41-0.7-0.29 -0.15 0.06-2.73 1.12-2.73 1.12 -1.82-3.65-4.72-6.45-8.15-8.17 0 0 1.07-2.58 1.13-2.73 0.11-0.27-0.01-0.59-0.29-0.7 0 0-0.32-0.21 0.15-0.89 0.47-0.68 3.14-4.21 1.45-4.96 -1.72-0.67-2.34 3.71-2.49 4.52 -0.15 0.81-0.53 0.74-0.53 0.74 -0.28-0.11-0.59 0.02-0.7 0.29 -0.06 0.15-1.14 2.72-1.14 2.72 -3.64-1.22-7.67-1.3-11.54-0.02 0 0-1.06-2.58-1.12-2.73 -0.12-0.27-0.43-0.4-0.7-0.29 0 0-0.38 0.08-0.52-0.73 -0.15-0.82-0.76-5.2-2.48-4.53 -1.69 0.73 0.97 4.28 1.43 4.96 0.47 0.68 0.15 0.89 0.15 0.89 -0.27 0.11-0.4 0.43-0.29 0.7 0.06 0.15 1.12 2.73 1.12 2.73 -3.65 1.81-6.46 4.72-8.18 8.15 0 0-2.57-1.07-2.72-1.14 -0.28-0.11-0.59 0.02-0.7 0.29 0 0-0.21 0.32-0.89-0.15 -0.68-0.47-4.21-3.14-4.95-1.45 -0.68 1.72 3.71 2.34 4.52 2.5 0.81 0.15 0.73 0.52 0.73 0.52 -0.11 0.28 0.01 0.58 0.29 0.7 0.15 0.06 2.72 1.13 2.72 1.13 -1.22 3.64-1.31 7.67-0.02 11.55 0 0-2.58 1.06-2.72 1.12 -0.28 0.12-0.41 0.43-0.3 0.7 0 0 0.08 0.37-0.73 0.52 -0.81 0.15-5.2 0.75-4.53 2.47 0.74 1.69 4.28-0.96 4.96-1.43 0.68-0.48 0.89-0.15 0.89-0.15 0.11 0.27 0.43 0.41 0.7 0.29 0.15-0.06 2.73-1.12 2.73-1.12 1.81 3.65 4.72 6.45 8.15 8.17 0 0-1.07 2.58-1.14 2.72 -0.11 0.27 0.02 0.59 0.29 0.7 0 0 0.33 0.21-0.15 0.89 -0.47 0.68-3.15 4.21-1.45 4.95 1.72 0.68 2.35-3.71 2.49-4.52 0.15-0.81 0.52-0.74 0.52-0.74 0.28 0.12 0.59-0.01 0.7-0.29 0.06-0.15 1.14-2.72 1.14-2.72 3.64 1.22 7.68 1.31 11.55 0.02 0 0 1.06 2.58 1.12 2.73 0.12 0.27 0.42 0.4 0.7 0.29 0 0 0.38-0.08 0.52 0.73 0.15 0.82 0.76 5.21 2.48 4.53 1.69-0.73-0.97-4.28-1.44-4.96 -0.47-0.68-0.15-0.89-0.15-0.89 0.28-0.11 0.4-0.42 0.29-0.7C65.69 73.57 64.64 71 64.64 71c3.65-1.81 6.45-4.72 8.18-8.15 0 0 2.57 1.07 2.72 1.13 0.27 0.12 0.58-0.02 0.7-0.29 0 0 0.2-0.32 0.88 0.15 0.68 0.47 4.21 3.14 4.96 1.45C82.75 63.58 78.37 62.95 77.55 62.8zM62.75 42.97c2.25 1.21 4.17 3.06 5.43 5.44l-6.08 2.55c-0.5-0.77-1.16-1.42-1.92-1.93L62.75 42.97zM60.36 41.97l-2.5 6.1c-0.45-0.09-0.9-0.14-1.37-0.14 -0.46 0-0.91 0.05-1.35 0.14l-2.48-6.1C55.25 41.17 57.91 41.22 60.36 41.97zM50.26 42.94l2.55 6.08c-0.77 0.5-1.42 1.16-1.93 1.92l-6.07-2.57C46.02 46.13 47.88 44.21 50.26 42.94zM43.81 50.77l6.1 2.49c-0.09 0.44-0.14 0.9-0.14 1.37 0 0.46 0.05 0.91 0.14 1.34 -1.98 0.8-4.71 1.9-4.83 1.95l-1.28 0.53C43.02 55.88 43.07 53.21 43.81 50.77zM50.21 66.31c-2.25-1.21-4.16-3.07-5.42-5.44l6.08-2.55c0.5 0.76 1.15 1.42 1.92 1.92L50.21 66.31zM52.62 67.32l2.49-6.1c0.44 0.09 0.9 0.14 1.37 0.14 0.46 0 0.91-0.05 1.34-0.13 0.8 1.97 1.91 4.71 1.96 4.83l0.52 1.28C57.73 68.11 55.06 68.06 52.62 67.32zM62.71 66.34l-2.55-6.08c0.77-0.5 1.42-1.15 1.93-1.92l6.07 2.57C66.95 63.16 65.09 65.07 62.71 66.34zM69.16 58.51l-6.09-2.5c0.09-0.44 0.14-0.9 0.14-1.37 0-0.46-0.05-0.91-0.14-1.35l6.11-2.48C69.95 53.4 69.91 56.06 69.16 58.51z"/><path fill="#fff" d="M51.74 27.07c0 0-0.02 4.09-0.05 8.92 1.57-0.41 3.17-0.62 4.8-0.62 1.62 0 3.24 0.22 4.81 0.62 -0.03-4.85-0.06-8.92-0.06-8.92l13.42-0.06c0 0 2.13-6.15-0.29-6.49 -2.42-0.34-13.45-1.81-13.45-1.81v-3.07c2.27-1.54 3.76-4.14 3.76-7.08 0-4.73-3.83-8.56-8.55-8.56 -4.72 0-8.56 3.83-8.56 8.56 0 3.25 1.82 6.08 4.5 7.53v2.61c0 0-11.02 1.48-13.45 1.82 -2.42 0.33-0.29 6.49-0.29 6.49L51.74 27.07zM51.82 8.56c0-2.38 1.93-4.3 4.3-4.3 2.37 0 4.3 1.93 4.3 4.3 0 1.11-0.43 2.13-1.13 2.9 -0.76-0.64-1.74-1.01-2.8-1.01 -1.26 0-2.38 0.52-3.19 1.36C52.39 11.02 51.82 9.85 51.82 8.56z"/></svg>