<svg version="1.1" xmlns="http://www.w3.org/2000/svg">
	<defs>
		<symbol id="no-avatar" viewBox="0 0 90 81.4">
            <path d="M45 0C20.1 0 0 20.1 0 45c0 15 7.3 28.2 18.5 36.4C22.1 70.2 32.6 62.1 45 62.1c12.4 0 22.9 8.1 26.5 19.2C82.7 73.2 90 59.9 90 45 90 20.1 69.9 0 45 0zM45 55.7c-9.5 0-17.1-7.7-17.1-17.1S35.5 21.4 45 21.4c9.5 0 17.1 7.7 17.1 17.1S54.5 55.7 45 55.7z"/>
        </symbol>
        <symbol id="close" viewBox="0 0 55.2 55.1">
            <polygon points="33.2 27.6 55.1 49.5 49.5 55.1 27.6 33.2 5.7 55.1 0 49.5 21.9 27.6 0 5.7 5.7 0 27.6 21.9 49.5 0 55.1 5.7 33.2 27.6"/>
        </symbol>
        <symbol id="arrow-right" viewBox="0 0 95 95">
            <path d="M47.5 0C21.3 0 0 21.3 0 47.5S21.3 95 47.5 95 95 73.7 95 47.5 73.7 0 47.5 0zM53.6 70.8l-7.4-7.4 10.7-10.7H20.3V42.3h36.6L46.2 31.6l7.4-7.4 23.2 23.3L53.6 70.8z"/>
        </symbol>
        <symbol id="gentleman" viewBox="0 0 70.2 82.8">
            <path d="M42.4 68.4c-4.3-1-7.3 1.8-7.3 1.8s-3-2.8-7.3-1.8C21.9 69.8 20 79.1 13 76.9c0 0 1.5 5.8 10.1 5.9s12-6.7 12-6.7 3.4 6.8 12 6.7c8.6-0.1 10.1-5.9 10.1-5.9C50.2 79.1 48.3 69.8 42.4 68.4zM68.7 26.8c-0.9-0.6-2-0.7-3.1-0.5L57.3 28c-0.6 0.1-1.2-0.4-1.2-1l0.8-13.6C57.3 8 54.2 3 49.2 1.1c-4.5-1.6-9.4-1-14.1-1s-9.6-0.6-14.1 1C16 3 12.9 8 13.2 13.4L14.1 27c0 0.6-0.5 1.1-1.2 1l-8.3-1.7c-1-0.2-2.2-0.1-3.1 0.5 -2.1 1.3-1.9 4.5-0.1 6 0.9 0.7 1.9 1.1 3 1.5 6.6 2.3 13.5 3 20.4 3.4 6.9 0.4 13.8 0.4 20.7 0 6.9-0.4 13.8-1.2 20.4-3.4 1.1-0.4 2.1-0.8 3-1.5C70.6 31.2 70.8 28.1 68.7 26.8zM33.6 53.4c1-0.2 2-0.2 3 0 0.5 4.6 4.4 8.2 9.1 8.2 5.1 0 9.2-4.1 9.2-9.2s-4.1-9.2-9.2-9.2c-4.4 0-8.1 3.1-9 7.2 -1.1-0.2-2.2-0.2-3.3 0 -0.9-4.1-4.6-7.2-9-7.2 -5.1 0-9.2 4.1-9.2 9.2s4.1 9.2 9.2 9.2C29.2 61.6 33.1 58 33.6 53.4zM45.7 46.1c3.4 0 6.2 2.8 6.2 6.2 0 3.4-2.8 6.2-6.2 6.2s-6.2-2.8-6.2-6.2S42.3 46.1 45.7 46.1zM18.3 52.4c0-3.4 2.8-6.2 6.2-6.2s6.2 2.8 6.2 6.2c0 3.4-2.8 6.2-6.2 6.2S18.3 55.8 18.3 52.4z"/>
        </symbol>
        <symbol id="cookie" viewBox="0 0 99 97.7">
            <g><path d="M49.5 97.7C22.2 97.7 0 75.5 0 48.2 0 29.3 11.1 11.7 28.2 3.5c1.2-0.6 2.6-0.6 3.8 0 1.2 0.6 2.1 1.7 2.3 3.1 0.4 2.1 2.1 7.1 8.6 7.1 4.5 0 6.7-2.5 7.7-4.5 0.9-1.8 3-2.8 5-2.3 2 0.5 3.4 2.3 3.3 4.4 -0.1 3.3 0.8 6.3 2.5 8 2.2 2.2 5.9 2.4 11 0.6 1.8-0.7 3.9 0 5 1.6 1.1 1.6 1.1 3.7-0.1 5.3 -1.9 2.4-2.1 6-0.5 9.3 1.9 3.9 5.8 6.3 10.3 6.3 2 0 3.7-0.4 5.3-1.3 1.3-0.7 2.9-0.7 4.2 0 1.3 0.7 2.1 2 2.3 3.5l0 0.5c0.1 1 0.1 2 0.1 3C99 75.5 76.8 97.7 49.5 97.7zM27.7 13.8c-11.7 7.4-19 20.5-19 34.4C8.7 70.7 27 89 49.5 89c21.6 0 39.3-16.9 40.7-38.1 -1 0.1-2 0.2-3.1 0.2 -7.8 0-14.8-4.3-18.2-11.2 -1.6-3.3-2.2-6.7-1.9-10 -0.2 0-0.5 0-0.7 0h0c-4.5 0-8.3-1.5-11.2-4.4 -1.4-1.4-2.5-3.2-3.3-5.1 -2.6 1.5-5.6 2.2-8.9 2.2C36.2 22.5 30.7 19.2 27.7 13.8zM95.4 8.1c0 2-1.6 3.6-3.6 3.6 -2 0-3.6-1.6-3.6-3.6 0-2 1.6-3.6 3.6-3.6C93.8 4.5 95.4 6.1 95.4 8.1z"/><circle cx="28.2" cy="37.5" r="6.2"/><circle cx="32.6" cy="61.8" r="6.2"/><circle cx="55.3" cy="69.5" r="6.2"/><circle cx="52.6" cy="44.8" r="6.2"/><path d="M77.8 5.7c0 3.1-2.6 5.7-5.7 5.7 -3.1 0-5.7-2.6-5.7-5.7 0-3.2 2.6-5.7 5.7-5.7C75.2 0 77.8 2.6 77.8 5.7z"/><circle cx="92.5" cy="27.4" r="4"/></g>
        </symbol>
	</defs>
</svg>